<svg id="_x33_0" enable-background="new 0 0 64 64" height="512" viewBox="0 0 64 64" width="512" xmlns="http://www.w3.org/2000/svg"><g><path d="m58.711 21.579c2.685-1.919 4.289-5.035 4.289-8.335v-.415c0-1.955-.711-3.8-2.012-5.24-.214-3.67-3.266-6.589-6.988-6.589h-8.021c-2.745 0-4.979 2.234-4.979 4.979 0 1.813 1.003 3.445 2.531 4.316-.935 1.606-2.531 4.9-2.531 8.705v.721l3 1v1.865c0 1.179.459 2.288 1.292 3.121.717.717 1.642 1.136 2.636 1.246-.183 1.351-.745 2.63-1.64 3.674-2.5 2.916-3.972 6.562-4.234 10.373h-2.64l-1.14-1.14c-.554-.554-1.292-.86-2.077-.86-1.12 0-2.126.622-2.625 1.619l-.212.418c-.119-.015-.237-.037-.361-.037h-2.383l-.188-.376c-.501-1.002-1.508-1.624-2.629-1.624-.784 0-1.522.305-2.078.86l-1.139 1.14h-2.714l-.201-1.405c-.469-3.283-1.839-6.364-3.961-8.911-.889-1.067-1.435-2.367-1.619-3.732.989-.112 1.908-.531 2.621-1.244.833-.834 1.292-1.942 1.292-3.122v-1.865l3-1v-.721c0-3.806-1.596-7.1-2.531-8.705 1.528-.871 2.531-2.502 2.531-4.316v-2.565c0-1.331-1.083-2.414-2.414-2.414-.645 0-1.251.251-1.707.707-.834.834-1.942 1.293-3.122 1.293h-7.757c-2.617 0-4.77 2.02-4.983 4.583-1.304 1.44-2.017 3.288-2.017 5.246v.415c0 3.301 1.604 6.417 4.289 8.335l2.711 1.936v4.906c-.944.409-1.751 1.099-2.304 2.014-.444.735-.674 1.622-.684 2.565h-.012v30h17v-12h1.996c1.103 0 2-.897 2-2h12.004c0 1.103.897 2 2 2h2v12h14c2.206 0 4-1.794 4-4v-2.278c.595-.347 1-.985 1-1.722v-22c0-2.757-2.243-5-5-5v-4.485zm-39.024 18.299.15 1.051c-2.095-.332-3.78-1.951-4.14-4.104l-.662-3.95c.637.067 1.276.107 1.914.114 1.439 2.045 2.383 4.401 2.738 6.889zm-1.687-20.598v3.307c0 .635-.258 1.258-.708 1.707-.455.456-1.061.706-1.706.706h-3.586v2h2.064c.154 1.389.619 2.726 1.356 3.912-.32-.03-.637-.078-.955-.125-.823-1.661-2.522-2.786-4.465-2.787v-8.586c0-.534-.208-1.036-.586-1.414l-1-1c-.263-.263-.414-.628-.414-1 0-.551.449-1 1-1h1v-2c0-1.103.897-2 2-2h5.721c.269 0 .537-.019.803-.055.695 1.133 2.251 4.006 2.454 7.342zm-11.549.671c-2.161-1.544-3.451-4.051-3.451-6.707v-.415c0-1.557.606-3.021 1.707-4.122l.293-.293v-.414c0-1.654 1.346-3 3-3h7.757c1.713 0 3.324-.667 4.536-1.879.238-.239.707-.045.707.293v2.565c0 1.332-.896 2.512-2.178 2.87-.358.1-.728.151-1.101.151h-5.721c-2.206 0-4 1.794-4 4v.171c-1.164.413-2 1.525-2 2.829 0 .912.355 1.77 1 2.414l1 1v1.643zm7.549 41.049c0-1.103.897-2 2-2v-2c-2.206 0-4 1.794-4 4h-5v-6h13v6zm6-8h-13v-9.584c2.085 4.498 6.661 7.584 11.809 7.584h1.191zm3.996-4h-5.187c-5.423 0-10.104-4.043-10.89-9.407l-.891-6.085c-.09-.761.045-1.485.381-2.04.49-.811 1.303-1.338 2.246-1.449.095-.012.22-.019.343-.019 1.517 0 2.795 1.14 2.98 2.7l.746 4.457c.567 3.387 3.471 5.845 6.906 5.844h.001 3.364v5.999zm21.983-46h8.021c2.757 0 5 2.243 5 5v.414l.293.293c1.101 1.101 1.707 2.564 1.707 4.122v.415c0 2.656-1.29 5.164-3.451 6.707l-1.549 1.106v-1.643l1-1c.645-.645 1-1.502 1-2.414 0-1.304-.836-2.416-2-2.829v-.171c0-2.206-1.794-4-4-4h-5.721c-.373 0-.743-.051-1.101-.15-1.282-.359-2.178-1.539-2.178-2.871 0-1.643 1.336-2.979 2.979-2.979zm.994 29.995c1.371-.009 2.734-.158 4.072-.439-.013.149-.045.292-.045.444v20h-7v-10.78c0-3.32 1.049-6.546 2.973-9.225zm12.028 22.005h-6.001v-2h6.001zm-33.005-8v-4.585l1.14-1.14c.429-.428 1.234-.297 1.503.243l.741 1.482h3.619c.552 0 1.001.449 1.001 1 0 1.654-1.347 3-3.001 3zm8.978 0c.635-.838 1.026-1.87 1.026-3 0-.808-.324-1.539-.845-2.079l.204-.403c.271-.543 1.071-.673 1.501-.244l1.14 1.14v4.586zm5.026 2v-6h2v6zm4 6h7c0 .737.405 1.375 1 1.722v2.278c0 .732.212 1.409.556 2h-8.556zm12 6c-1.103 0-2-.897-2-2v-2h4v2c0 1.103-.897 2-2 2zm3-28 .001 18h-6.001v-18c0-1.654 1.346-3 3-3s3 1.346 3 3zm-3.414-16-1 1c-.378.378-.586.88-.586 1.414v9.01c-.908.399-1.671 1.061-2.202 1.888-1.063.296-2.148.496-3.245.599.755-1.179 1.231-2.516 1.385-3.91l2.062-.001v-2h-3.586c-.645 0-1.251-.251-1.707-.707-.449-.449-.707-1.071-.707-1.707v-3.306l-2.978-.993c.203-3.336 1.759-6.209 2.454-7.342.266.036.534.055.803.055h5.721c1.103 0 2 .897 2 2v2h1c.551 0 1 .449 1 1 0 .372-.151.737-.414 1z"/><path d="m30.707 53.707-1.414-1.414-4.707 4.707 4.707 4.707 1.414-1.414-2.293-2.293h11.586v-2h-11.586z"/><path d="m34.293 25.293 1.414 1.414 4.707-4.707-4.707-4.707-1.414 1.414 2.293 2.293h-11.586v2h11.586z"/></g></svg>