<?xml version="1.0" encoding="iso-8859-1"?>
<!-- Generator: Adobe Illustrator 19.0.0, SVG Export Plug-In . SVG Version: 6.00 Build 0)  -->
<svg version="1.1" id="Layer_1" xmlns="http://www.w3.org/2000/svg" xmlns:xlink="http://www.w3.org/1999/xlink" x="0px" y="0px"
	 viewBox="0 0 512 512" style="enable-background:new 0 0 512 512;" xml:space="preserve">
<g>
	<g>
		<path d="M364.042,47.783c-2.069-2.07-4.941-3.261-7.868-3.261s-5.799,1.191-7.869,3.261s-3.261,4.942-3.261,7.869
			s1.19,5.799,3.261,7.869s4.942,3.261,7.869,3.261s5.799-1.191,7.868-3.261c2.071-2.07,3.262-4.942,3.262-7.869
			S366.113,49.853,364.042,47.783z"/>
	</g>
</g>
<g>
	<g>
		<path d="M434.087,0H77.913c-6.146,0-11.13,4.983-11.13,11.13v44.522v367.304v44.522c0,6.147,4.984,11.13,11.13,11.13h11.13
			c0,18.412,14.979,33.391,33.391,33.391c18.412,0,33.391-14.979,33.391-33.391h200.348c0,18.412,14.979,33.391,33.391,33.391
			c18.412,0,33.391-14.979,33.391-33.391h11.13c6.146,0,11.13-4.983,11.13-11.13v-44.522V55.652V11.13
			C445.217,4.983,440.233,0,434.087,0z M89.043,389.565h33.391c6.146,0,11.13-4.983,11.13-11.13c0-6.147-4.984-11.13-11.13-11.13
			H89.043V66.783H244.87v345.044H89.043V389.565z M122.435,489.739c-6.137,0-11.13-4.993-11.13-11.13h22.261
			C133.565,484.746,128.572,489.739,122.435,489.739z M389.565,489.739c-6.137,0-11.13-4.993-11.13-11.13h22.261
			C400.696,484.746,395.702,489.739,389.565,489.739z M422.957,456.348h-14.132h-38.517H141.694h-38.518H89.043v-22.261h333.913
			V456.348z M422.957,44.522h-33.391c-6.146,0-11.13,4.983-11.13,11.13s4.984,11.13,11.13,11.13h33.391v345.044H267.13V66.783
			h55.652c6.146,0,11.13-4.983,11.13-11.13s-4.984-11.13-11.13-11.13H89.043V22.261h333.913V44.522z"/>
	</g>
</g>
<g>
	<g>
		<path d="M300.522,206.191c-6.146,0-11.13,4.983-11.13,11.13v44.522c0,6.147,4.984,11.13,11.13,11.13s11.13-4.983,11.13-11.13
			v-44.522C311.652,211.174,306.668,206.191,300.522,206.191z"/>
	</g>
</g>
<g>
	<g>
		<path d="M211.478,202.852c-6.146,0-11.13,4.983-11.13,11.13v44.522c0,6.147,4.984,11.13,11.13,11.13s11.13-4.983,11.13-11.13
			v-44.522C222.609,207.835,217.624,202.852,211.478,202.852z"/>
	</g>
</g>
<g>
	<g>
		<path d="M163.694,370.566c-2.069-2.07-4.941-3.261-7.868-3.261s-5.799,1.191-7.869,3.261c-2.07,2.07-3.261,4.942-3.261,7.869
			s1.19,5.799,3.261,7.869c2.071,2.07,4.942,3.261,7.869,3.261s5.799-1.191,7.868-3.261c2.07-2.07,3.262-4.942,3.262-7.869
			S165.766,372.636,163.694,370.566z"/>
	</g>
</g>
<g>
</g>
<g>
</g>
<g>
</g>
<g>
</g>
<g>
</g>
<g>
</g>
<g>
</g>
<g>
</g>
<g>
</g>
<g>
</g>
<g>
</g>
<g>
</g>
<g>
</g>
<g>
</g>
<g>
</g>
</svg>
