<svg id="Layer_1" height="512" viewBox="0 0 128 128" width="512" xmlns="http://www.w3.org/2000/svg" data-name="Layer 1"><path d="m103.81 4.75h-79.62a1.75 1.75 0 0 0 -1.75 1.75v109a1.75 1.75 0 0 0 1.75 1.75h7.81l1.443 4.758a1.75 1.75 0 0 0 1.675 1.242h8.82a1.75 1.75 0 0 0 1.75-1.75v-4.25h36.622v4.25a1.75 1.75 0 0 0 1.75 1.75h8.82a1.75 1.75 0 0 0 1.675-1.242l1.445-4.758h7.812a1.75 1.75 0 0 0 1.75-1.75v-109a1.75 1.75 0 0 0 -1.752-1.75zm-1.75 25.8h-36.31v-22.3h36.31zm-76.12-22.3h36.31v22.3h-36.31zm0 25.8h36.31v79.7h-36.31zm16.25 85.7h-5.772l-.758-2.5h6.53zm49.392 0h-5.772v-2.5h6.53zm-25.832-6v-79.7h36.31v79.7z"/><path d="m55 14.65a1.751 1.751 0 0 0 -1.75 1.75v6a1.75 1.75 0 1 0 3.5 0v-6a1.751 1.751 0 0 0 -1.75-1.75z"/><path d="m73 24.15a1.75 1.75 0 0 0 1.75-1.75v-6a1.75 1.75 0 0 0 -3.5 0v6a1.75 1.75 0 0 0 1.75 1.75z"/><path d="m55 80.027a1.75 1.75 0 0 0 1.75-1.75v-16.545a1.75 1.75 0 0 0 -3.5 0v16.545a1.75 1.75 0 0 0 1.75 1.75z"/><path d="m73 59.982a1.751 1.751 0 0 0 -1.75 1.75v16.545a1.75 1.75 0 0 0 3.5 0v-16.545a1.751 1.751 0 0 0 -1.75-1.75z"/></svg>